<svg width="500" height="750" viewBox="0 0 500 750" fill="none" xmlns="http://www.w3.org/2000/svg">
<rect width="500" height="750" fill="#E7E7E7"/>
<path d="M274.968 326.963C276.473 331.631 273.963 336.646 269.323 338.238L176.996 369.912C169.374 372.527 162.42 364.576 166.028 357.37L228.399 232.797C232.006 225.591 242.539 226.395 245.012 234.064L274.968 326.963Z" fill="#5C10FF"/>
<path d="M234.062 309.831C229.559 311.777 227.444 316.971 229.306 321.509L266.361 411.811C269.421 419.266 279.984 419.252 283.023 411.789L335.567 282.763C338.606 275.3 331.058 267.91 323.661 271.107L234.062 309.831Z" fill="#FF10CA" fill-opacity="0.62"/>
<path d="M105.54 511.05C106.2 511.05 106.725 511.275 107.115 511.725C107.535 512.145 107.745 512.7 107.745 513.39V540.885C107.745 541.575 107.535 542.145 107.115 542.595C106.695 543.015 106.155 543.225 105.495 543.225C104.715 543.225 104.115 542.925 103.695 542.325L86.055 519.06V540.885C86.055 541.575 85.845 542.145 85.425 542.595C85.035 543.015 84.51 543.225 83.85 543.225C83.19 543.225 82.665 543.015 82.275 542.595C81.885 542.175 81.69 541.605 81.69 540.885V513.39C81.69 512.7 81.9 512.145 82.32 511.725C82.74 511.275 83.28 511.05 83.94 511.05C84.72 511.05 85.32 511.35 85.74 511.95L103.38 535.26V513.39C103.38 512.7 103.575 512.145 103.965 511.725C104.355 511.275 104.88 511.05 105.54 511.05ZM124.132 543.315C121.972 543.315 120.067 542.85 118.417 541.92C116.797 540.99 115.537 539.67 114.637 537.96C113.767 536.22 113.332 534.21 113.332 531.93C113.332 529.62 113.767 527.61 114.637 525.9C115.537 524.16 116.797 522.825 118.417 521.895C120.067 520.965 121.972 520.5 124.132 520.5C126.292 520.5 128.182 520.965 129.802 521.895C131.452 522.825 132.712 524.16 133.582 525.9C134.482 527.61 134.932 529.62 134.932 531.93C134.932 534.21 134.482 536.22 133.582 537.96C132.712 539.67 131.452 540.99 129.802 541.92C128.182 542.85 126.292 543.315 124.132 543.315ZM124.132 539.715C126.142 539.715 127.672 539.055 128.722 537.735C129.802 536.415 130.342 534.48 130.342 531.93C130.342 529.41 129.802 527.49 128.722 526.17C127.642 524.82 126.112 524.145 124.132 524.145C122.152 524.145 120.622 524.82 119.542 526.17C118.462 527.49 117.922 529.41 117.922 531.93C117.922 534.48 118.447 536.415 119.497 537.735C120.577 539.055 122.122 539.715 124.132 539.715ZM154.693 543.225C154.003 543.225 153.448 543.015 153.028 542.595C152.608 542.175 152.398 541.605 152.398 540.885V513.525C152.398 512.835 152.593 512.295 152.983 511.905C153.403 511.485 153.973 511.275 154.693 511.275H165.538C168.898 511.275 171.508 512.1 173.368 513.75C175.228 515.4 176.158 517.74 176.158 520.77C176.158 523.77 175.228 526.11 173.368 527.79C171.508 529.47 168.898 530.31 165.538 530.31H157.033V540.885C157.033 541.605 156.823 542.175 156.403 542.595C156.013 543.015 155.443 543.225 154.693 543.225ZM165.043 526.575C169.483 526.575 171.703 524.64 171.703 520.77C171.703 516.93 169.483 515.01 165.043 515.01H157.033V526.575H165.043ZM190.006 543.315C187.846 543.315 185.941 542.85 184.291 541.92C182.671 540.99 181.411 539.67 180.511 537.96C179.641 536.22 179.206 534.21 179.206 531.93C179.206 529.62 179.641 527.61 180.511 525.9C181.411 524.16 182.671 522.825 184.291 521.895C185.941 520.965 187.846 520.5 190.006 520.5C192.166 520.5 194.056 520.965 195.676 521.895C197.326 522.825 198.586 524.16 199.456 525.9C200.356 527.61 200.806 529.62 200.806 531.93C200.806 534.21 200.356 536.22 199.456 537.96C198.586 539.67 197.326 540.99 195.676 541.92C194.056 542.85 192.166 543.315 190.006 543.315ZM190.006 539.715C192.016 539.715 193.546 539.055 194.596 537.735C195.676 536.415 196.216 534.48 196.216 531.93C196.216 529.41 195.676 527.49 194.596 526.17C193.516 524.82 191.986 524.145 190.006 524.145C188.026 524.145 186.496 524.82 185.416 526.17C184.336 527.49 183.796 529.41 183.796 531.93C183.796 534.48 184.321 536.415 185.371 537.735C186.451 539.055 187.996 539.715 190.006 539.715ZM213.517 543.315C210.457 543.315 207.952 542.685 206.002 541.425C205.462 541.095 205.072 540.75 204.832 540.39C204.622 540.03 204.517 539.625 204.517 539.175C204.517 538.695 204.652 538.29 204.922 537.96C205.192 537.63 205.537 537.465 205.957 537.465C206.347 537.465 206.962 537.705 207.802 538.185C208.702 538.665 209.572 539.055 210.412 539.355C211.282 539.655 212.362 539.805 213.652 539.805C215.092 539.805 216.217 539.55 217.027 539.04C217.837 538.53 218.242 537.81 218.242 536.88C218.242 536.28 218.077 535.8 217.747 535.44C217.447 535.08 216.907 534.765 216.127 534.495C215.347 534.195 214.192 533.88 212.662 533.55C210.022 532.98 208.117 532.215 206.947 531.255C205.807 530.265 205.237 528.93 205.237 527.25C205.237 525.96 205.612 524.805 206.362 523.785C207.112 522.735 208.147 521.925 209.467 521.355C210.787 520.785 212.287 520.5 213.967 520.5C215.167 520.5 216.337 520.665 217.477 520.995C218.617 521.295 219.622 521.745 220.492 522.345C221.482 523.005 221.977 523.77 221.977 524.64C221.977 525.12 221.827 525.525 221.527 525.855C221.257 526.185 220.927 526.35 220.537 526.35C220.267 526.35 219.997 526.29 219.727 526.17C219.457 526.05 219.097 525.855 218.647 525.585C217.837 525.105 217.072 524.73 216.352 524.46C215.662 524.19 214.792 524.055 213.742 524.055C212.482 524.055 211.462 524.325 210.682 524.865C209.932 525.405 209.557 526.14 209.557 527.07C209.557 527.91 209.902 528.57 210.592 529.05C211.312 529.5 212.647 529.935 214.597 530.355C216.607 530.775 218.182 531.255 219.322 531.795C220.462 532.335 221.272 533.01 221.752 533.82C222.262 534.6 222.517 535.605 222.517 536.835C222.517 538.785 221.692 540.36 220.042 541.56C218.422 542.73 216.247 543.315 213.517 543.315ZM238.111 539.76C238.771 539.82 239.236 540 239.506 540.3C239.806 540.57 239.956 540.96 239.956 541.47C239.956 542.07 239.716 542.535 239.236 542.865C238.786 543.165 238.111 543.285 237.211 543.225L235.996 543.135C233.566 542.955 231.751 542.22 230.551 540.93C229.351 539.61 228.751 537.675 228.751 535.125V524.55H226.051C224.731 524.55 224.071 523.965 224.071 522.795C224.071 522.255 224.236 521.835 224.566 521.535C224.926 521.205 225.421 521.04 226.051 521.04H228.751V516.405C228.751 515.715 228.946 515.175 229.336 514.785C229.756 514.395 230.311 514.2 231.001 514.2C231.691 514.2 232.246 514.395 232.666 514.785C233.086 515.175 233.296 515.715 233.296 516.405V521.04H237.751C238.381 521.04 238.861 521.205 239.191 521.535C239.551 521.835 239.731 522.255 239.731 522.795C239.731 523.365 239.551 523.8 239.191 524.1C238.861 524.4 238.381 524.55 237.751 524.55H233.296V535.44C233.296 536.85 233.581 537.885 234.151 538.545C234.751 539.205 235.651 539.58 236.851 539.67L238.111 539.76ZM260.41 537.465C260.83 537.465 261.175 537.63 261.445 537.96C261.715 538.29 261.85 538.71 261.85 539.22C261.85 540.09 261.31 540.825 260.23 541.425C259.18 542.025 258.025 542.49 256.765 542.82C255.535 543.15 254.35 543.315 253.21 543.315C249.73 543.315 246.985 542.31 244.975 540.3C242.965 538.26 241.96 535.485 241.96 531.975C241.96 529.725 242.395 527.73 243.265 525.99C244.165 524.25 245.41 522.9 247 521.94C248.62 520.98 250.45 520.5 252.49 520.5C255.43 520.5 257.755 521.445 259.465 523.335C261.175 525.225 262.03 527.775 262.03 530.985C262.03 532.185 261.49 532.785 260.41 532.785H246.505C246.805 537.435 249.04 539.76 253.21 539.76C254.32 539.76 255.28 539.61 256.09 539.31C256.9 539.01 257.755 538.62 258.655 538.14C258.745 538.08 258.985 537.96 259.375 537.78C259.795 537.57 260.14 537.465 260.41 537.465ZM252.58 523.83C250.84 523.83 249.445 524.385 248.395 525.495C247.345 526.605 246.715 528.165 246.505 530.175H258.115C258.025 528.135 257.5 526.575 256.54 525.495C255.61 524.385 254.29 523.83 252.58 523.83ZM278.559 520.59C279.999 520.5 280.719 521.115 280.719 522.435C280.719 523.095 280.554 523.59 280.224 523.92C279.894 524.25 279.324 524.445 278.514 524.505L277.164 524.64C275.274 524.82 273.864 525.48 272.934 526.62C272.034 527.76 271.584 529.14 271.584 530.76V541.065C271.584 541.785 271.374 542.325 270.954 542.685C270.534 543.045 269.994 543.225 269.334 543.225C268.674 543.225 268.119 543.045 267.669 542.685C267.249 542.325 267.039 541.785 267.039 541.065V522.75C267.039 522.06 267.249 521.535 267.669 521.175C268.119 520.785 268.674 520.59 269.334 520.59C269.934 520.59 270.429 520.785 270.819 521.175C271.239 521.535 271.449 522.045 271.449 522.705V524.865C272.049 523.545 272.919 522.54 274.059 521.85C275.199 521.16 276.489 520.755 277.929 520.635L278.559 520.59ZM298.218 543.225C297.528 543.225 296.973 543.015 296.553 542.595C296.133 542.145 295.923 541.575 295.923 540.885V513.525C295.923 512.835 296.118 512.295 296.508 511.905C296.928 511.485 297.498 511.275 298.218 511.275H314.328C315.768 511.275 316.488 511.905 316.488 513.165C316.488 514.425 315.768 515.055 314.328 515.055H300.513V525H313.428C314.868 525 315.588 525.63 315.588 526.89C315.588 528.15 314.868 528.78 313.428 528.78H300.513V540.885C300.513 541.605 300.303 542.175 299.883 542.595C299.493 543.015 298.938 543.225 298.218 543.225ZM329.709 543.315C327.549 543.315 325.644 542.85 323.994 541.92C322.374 540.99 321.114 539.67 320.214 537.96C319.344 536.22 318.909 534.21 318.909 531.93C318.909 529.62 319.344 527.61 320.214 525.9C321.114 524.16 322.374 522.825 323.994 521.895C325.644 520.965 327.549 520.5 329.709 520.5C331.869 520.5 333.759 520.965 335.379 521.895C337.029 522.825 338.289 524.16 339.159 525.9C340.059 527.61 340.509 529.62 340.509 531.93C340.509 534.21 340.059 536.22 339.159 537.96C338.289 539.67 337.029 540.99 335.379 541.92C333.759 542.85 331.869 543.315 329.709 543.315ZM329.709 539.715C331.719 539.715 333.249 539.055 334.299 537.735C335.379 536.415 335.919 534.48 335.919 531.93C335.919 529.41 335.379 527.49 334.299 526.17C333.219 524.82 331.689 524.145 329.709 524.145C327.729 524.145 326.199 524.82 325.119 526.17C324.039 527.49 323.499 529.41 323.499 531.93C323.499 534.48 324.024 536.415 325.074 537.735C326.154 539.055 327.699 539.715 329.709 539.715ZM362.579 520.59C363.269 520.59 363.809 520.785 364.199 521.175C364.619 521.565 364.829 522.105 364.829 522.795V541.11C364.829 541.74 364.619 542.25 364.199 542.64C363.779 543.03 363.224 543.225 362.534 543.225C361.904 543.225 361.394 543.045 361.004 542.685C360.614 542.295 360.419 541.785 360.419 541.155V539.445C359.729 540.705 358.769 541.665 357.539 542.325C356.339 542.985 354.989 543.315 353.489 543.315C348.149 543.315 345.479 540.375 345.479 534.495V522.795C345.479 522.105 345.674 521.565 346.064 521.175C346.484 520.785 347.054 520.59 347.774 520.59C348.464 520.59 349.004 520.785 349.394 521.175C349.814 521.565 350.024 522.105 350.024 522.795V534.45C350.024 536.22 350.384 537.525 351.104 538.365C351.824 539.205 352.934 539.625 354.434 539.625C356.204 539.625 357.614 539.055 358.664 537.915C359.744 536.775 360.284 535.26 360.284 533.37V522.795C360.284 522.135 360.494 521.61 360.914 521.22C361.334 520.8 361.889 520.59 362.579 520.59ZM383.024 520.5C388.274 520.5 390.899 523.455 390.899 529.365V541.065C390.899 541.755 390.689 542.295 390.269 542.685C389.879 543.045 389.324 543.225 388.604 543.225C387.914 543.225 387.359 543.03 386.939 542.64C386.549 542.25 386.354 541.725 386.354 541.065V529.59C386.354 527.73 385.979 526.365 385.229 525.495C384.509 524.625 383.369 524.19 381.809 524.19C379.979 524.19 378.509 524.76 377.399 525.9C376.289 527.04 375.734 528.57 375.734 530.49V541.065C375.734 541.725 375.524 542.25 375.104 542.64C374.714 543.03 374.174 543.225 373.484 543.225C372.794 543.225 372.239 543.03 371.819 542.64C371.399 542.25 371.189 541.725 371.189 541.065V522.75C371.189 522.12 371.399 521.61 371.819 521.22C372.269 520.8 372.824 520.59 373.484 520.59C374.144 520.59 374.669 520.785 375.059 521.175C375.449 521.565 375.644 522.075 375.644 522.705V524.55C376.364 523.23 377.369 522.225 378.659 521.535C379.949 520.845 381.404 520.5 383.024 520.5ZM415.072 511.05C415.762 511.05 416.317 511.245 416.737 511.635C417.157 512.025 417.367 512.55 417.367 513.21V541.02C417.367 541.71 417.157 542.25 416.737 542.64C416.347 543.03 415.807 543.225 415.117 543.225C414.427 543.225 413.872 543.03 413.452 542.64C413.062 542.25 412.867 541.71 412.867 541.02V539.22C412.207 540.54 411.247 541.56 409.987 542.28C408.727 542.97 407.272 543.315 405.622 543.315C403.732 543.315 402.037 542.835 400.537 541.875C399.067 540.915 397.912 539.565 397.072 537.825C396.262 536.085 395.857 534.09 395.857 531.84C395.857 529.56 396.262 527.565 397.072 525.855C397.912 524.145 399.067 522.825 400.537 521.895C402.007 520.965 403.702 520.5 405.622 520.5C407.272 520.5 408.712 520.86 409.942 521.58C411.202 522.27 412.162 523.26 412.822 524.55V513.12C412.822 512.49 413.017 511.995 413.407 511.635C413.827 511.245 414.382 511.05 415.072 511.05ZM406.702 539.715C408.652 539.715 410.167 539.04 411.247 537.69C412.327 536.34 412.867 534.42 412.867 531.93C412.867 529.44 412.327 527.52 411.247 526.17C410.197 524.82 408.682 524.145 406.702 524.145C404.722 524.145 403.177 524.82 402.067 526.17C400.987 527.49 400.447 529.38 400.447 531.84C400.447 534.3 401.002 536.235 402.112 537.645C403.222 539.025 404.752 539.715 406.702 539.715Z" fill="#333333"/>
</svg>
